<?xml version="1.0" encoding="utf-8"?>
<!-- Generator: Adobe Illustrator 27.2.0, SVG Export Plug-In . SVG Version: 6.00 Build 0)  -->
<svg version="1.1" id="Слой_1" xmlns="http://www.w3.org/2000/svg" xmlns:xlink="http://www.w3.org/1999/xlink" x="0px" y="0px"
	 viewBox="0 0 256 256" style="enable-background:new 0 0 256 256;" xml:space="preserve">
<style type="text/css">
	.st0{fill:#0B0C10;}
	.st1{fill:#1F2833;}
	.st2{fill:#66FCF1;}
	.st3{fill:#45A29E;}
</style>
<g>
	<path class="st0" d="M32.02,161.69c11.17-2.29,22.33-2,33.6-3.18c10.13-1.06,19.38-5.75,27.58-11.6
		c7.87-5.62,13.72-13.15,20.17-20.25c6.99-7.68,15.27-14.53,24.05-20.09c8.27-5.23,17.67-9.31,27.26-11.35
		c11.1-2.37,22.47-2.1,33.65-3.73c10.31-1.5,18.8-5.79,27.62-11.14c8.37-5.08,18.27-9.26,24.39-17.16c0.73-0.94,1.65-1.62,2.68-2.09
		V43c0-22.09-17.91-40-40-40H43C20.91,3,3,20.91,3,43v129.18C11.63,166.67,22.1,163.72,32.02,161.69z"/>
</g>
<g>
	<path class="st0" d="M236.03,97.62c-10.47,6.35-21.12,11.49-33.34,13.28c-10.28,1.5-20.82,1.33-31.02,3.27
		c-9.21,1.74-17.64,5.37-25.46,10.51c-16.77,11.02-27.22,28.52-43.62,39.99c-8.52,5.96-18.57,10.91-28.86,12.77
		c-10.92,1.97-22.12,0.9-33,2.88c-8.48,1.54-17.38,3.49-25.02,7.61c-4.39,2.37-9.87,6.51-12.71,11.2V213c0,22.09,17.91,40,40,40h170
		c22.09,0,40-17.91,40-40V87.56C247.52,91.24,241.51,94.3,236.03,97.62z"/>
</g>
<g>
	<path class="st1" d="M61.59,158.37C53.03,143.41,48.5,126.34,48.5,109c0-54.86,44.64-99.5,99.5-99.5
		c40.69,0,76.83,24.31,92.17,61.97c-2.75,1.8-5.69,3.45-8.54,5.04c-1.98,1.11-4.02,2.25-5.95,3.42
		c-9.23,5.59-17.42,9.61-27.43,11.07c-4.66,0.68-9.43,1.03-14.05,1.38c-6.46,0.48-13.13,0.98-19.63,2.36
		c-9.25,1.97-18.73,5.92-27.42,11.42c-8.94,5.66-17.29,12.63-24.15,20.17c-1.37,1.5-2.71,3.02-4.04,4.54
		c-4.86,5.52-9.89,11.23-16.05,15.63c-9.55,6.82-18.49,10.59-27.34,11.51C64.24,158.15,62.92,158.26,61.59,158.37z"/>
	<path class="st0" d="M148,10c20.14,0,39.51,6.01,56.04,17.38c15.92,10.95,28.18,26.11,35.51,43.9c-2.64,1.71-5.44,3.27-8.16,4.79
		c-1.98,1.11-4.03,2.25-5.97,3.43c-9.17,5.56-17.32,9.56-27.24,11c-4.64,0.67-9.41,1.03-14.02,1.37c-6.47,0.48-13.17,0.98-19.7,2.37
		c-9.31,1.98-18.85,5.96-27.58,11.49c-8.97,5.68-17.36,12.69-24.25,20.26c-1.37,1.51-2.73,3.05-4.05,4.55
		c-5.06,5.75-9.85,11.19-15.96,15.55c-9.48,6.77-18.34,10.51-27.1,11.42c-1.14,0.12-2.34,0.23-3.64,0.33
		C53.45,143.02,49,126.15,49,109C49,54.41,93.41,10,148,10 M148,9L148,9C92.77,9,48,53.77,48,109v0c0,18.17,4.85,35.21,13.32,49.89
		c1.43-0.11,2.87-0.24,4.3-0.39c10.13-1.06,19.38-5.75,27.58-11.6c7.87-5.62,13.72-13.15,20.17-20.25
		c6.99-7.68,15.27-14.53,24.05-20.09c8.27-5.23,17.67-9.31,27.26-11.35c11.1-2.37,22.47-2.1,33.65-3.73
		c10.31-1.5,18.8-5.79,27.62-11.14c4.79-2.9,10.06-5.51,14.85-8.69C225.99,34.93,190.03,9,148,9L148,9z"/>
</g>
<g>
	<path class="st1" d="M148,208.5c-27.18,0-53.42-11.28-72.15-30.99c8.82-1.94,18.14-6.23,27.02-12.44
		c7.98-5.58,14.65-12.67,21.09-19.53c6.84-7.27,13.91-14.79,22.52-20.45c8-5.26,16.51-8.77,25.27-10.44
		c5.66-1.07,11.52-1.5,17.2-1.92c4.54-0.33,9.23-0.68,13.8-1.35c13.37-1.96,24.45-7.84,33.53-13.35c2.09-1.27,4.3-2.52,6.44-3.74
		c1.12-0.64,2.25-1.28,3.38-1.93c0.92,5.47,1.39,11.06,1.39,16.62C247.5,163.86,202.86,208.5,148,208.5z"/>
	<path class="st0" d="M245.74,93.17C246.58,98.39,247,103.7,247,109c0,54.59-44.41,99-99,99c-13.97,0-27.47-2.85-40.13-8.48
		c-11.7-5.2-22.13-12.5-31.04-21.72c8.63-2.04,17.69-6.28,26.34-12.32c8.02-5.6,14.71-12.72,21.17-19.59
		c6.82-7.25,13.87-14.75,22.43-20.38c7.95-5.23,16.39-8.71,25.09-10.36c5.63-1.07,11.48-1.5,17.14-1.91
		c4.55-0.33,9.25-0.68,13.84-1.35c13.45-1.97,24.59-7.89,33.72-13.41c2.08-1.26,4.29-2.51,6.43-3.73
		C243.89,94.22,244.82,93.7,245.74,93.17 M246.49,91.59c-3.52,2.05-7.09,3.99-10.45,6.03c-10.47,6.35-21.12,11.49-33.34,13.28
		c-10.28,1.5-20.82,1.33-31.02,3.27c-9.21,1.74-17.64,5.37-25.46,10.51c-16.77,11.02-27.22,28.52-43.62,39.99
		c-8.21,5.73-17.82,10.53-27.71,12.54C93.13,196.77,119.13,209,148,209h0c55.23,0,100-44.77,100-100v0
		C248,103.06,247.48,97.24,246.49,91.59L246.49,91.59z"/>
</g>
<g>
	<path class="st2" d="M88,242.5c-33.29,0-62.72-22.31-71.71-54.31c7.79-4.11,16.74-5.96,24.53-7.38c5.41-0.98,11.01-1.21,16.43-1.43
		c5.45-0.22,11.08-0.45,16.57-1.45c11.89-2.15,22.37-8.18,29.06-12.86c7.98-5.58,14.65-12.67,21.09-19.53
		c6.84-7.27,13.91-14.79,22.52-20.45c0.55-0.36,1.11-0.71,1.66-1.05c9.39,12.82,14.35,28.01,14.35,43.96
		C162.5,209.08,129.08,242.5,88,242.5z"/>
	<path class="st1" d="M148.02,124.71C157.17,137.37,162,152.32,162,168c0,40.8-33.2,74-74,74c-32.93,0-62.06-21.98-71.12-53.56
		c7.63-3.95,16.39-5.76,24.03-7.14c5.38-0.98,10.96-1.21,16.36-1.43c5.46-0.22,11.12-0.46,16.64-1.45
		c11.98-2.17,22.52-8.23,29.26-12.94c8.02-5.6,14.71-12.72,21.17-19.59c6.82-7.25,13.87-14.75,22.43-20.38
		C147.17,125.24,147.6,124.97,148.02,124.71 M148.28,123.38c-0.69,0.43-1.39,0.85-2.07,1.3c-16.77,11.02-27.22,28.52-43.62,39.99
		c-8.52,5.96-18.57,10.91-28.86,12.77c-10.92,1.97-22.12,0.9-33,2.88c-8.48,1.54-17.38,3.49-25.02,7.61c0,0-0.01,0-0.01,0.01
		C24.43,219.68,53.48,243,88,243h0c41.42,0,75-33.58,75-75v0C163,151.28,157.53,135.85,148.28,123.38L148.28,123.38z"/>
</g>
<g>
	<path class="st2" d="M13.53,166.37c0.42-19.43,8.24-37.64,22.09-51.34C49.65,101.15,68.26,93.5,88,93.5
		c16.49,0,32.09,5.28,45.17,15.28c-7.5,5.17-14.29,11.07-20.17,17.54c-1.37,1.5-2.71,3.02-4.04,4.54
		c-4.86,5.52-9.89,11.23-16.05,15.63c-9.55,6.82-18.49,10.59-27.34,11.51c-4.06,0.42-8.18,0.66-12.16,0.89
		c-7.04,0.41-14.32,0.83-21.49,2.3C24.59,162.7,18.72,164.35,13.53,166.37z"/>
	<path class="st1" d="M88,94c16.15,0,31.44,5.1,44.32,14.76c-7.31,5.1-13.93,10.89-19.69,17.22c-1.37,1.51-2.73,3.05-4.05,4.55
		c-5.06,5.75-9.85,11.19-15.96,15.55c-9.48,6.77-18.34,10.51-27.1,11.42c-4.05,0.42-8.16,0.66-12.14,0.89
		c-7.06,0.41-14.36,0.83-21.56,2.31c-7.03,1.44-12.72,3.02-17.76,4.93c0.6-19.02,8.35-36.82,21.92-50.25C49.91,101.6,68.39,94,88,94
		 M88,93L88,93c-41.12,0-74.5,33.1-74.98,74.11c6.15-2.46,12.68-4.13,18.99-5.42c11.17-2.29,22.33-2,33.6-3.18
		c10.13-1.06,19.38-5.75,27.58-11.6c7.87-5.62,13.72-13.15,20.17-20.25c6.08-6.68,13.14-12.74,20.65-17.86
		C121.31,98.91,105.35,93,88,93L88,93z"/>
</g>
<g>
	<path class="st3" d="M106,134.19c-4.91-7.86-7.5-16.9-7.5-26.19c0-27.29,22.21-49.5,49.5-49.5c20.98,0,39.65,13.21,46.65,32.95
		c-3.48,0.39-7.02,0.66-10.45,0.91c-6.46,0.48-13.14,0.98-19.64,2.36c-9.25,1.97-18.73,5.92-27.42,11.42
		c-8.94,5.66-17.29,12.63-24.15,20.17c-1.37,1.51-2.72,3.04-4.07,4.57C107.96,131.99,106.98,133.09,106,134.19z"/>
	<path class="st2" d="M148,59c20.56,0,38.87,12.82,45.96,32.02c-3.26,0.36-6.58,0.6-9.8,0.84c-6.48,0.48-13.18,0.98-19.71,2.37
		c-9.31,1.98-18.85,5.96-27.58,11.49c-8.97,5.68-17.36,12.69-24.25,20.26c-1.38,1.51-2.74,3.06-4.06,4.56
		c-0.83,0.94-1.65,1.88-2.48,2.81C101.44,125.71,99,116.97,99,108C99,80.98,120.98,59,148,59 M148,58L148,58
		c-27.61,0-50,22.39-50,50v0c0,9.95,2.92,19.22,7.93,27.01c2.49-2.76,4.91-5.59,7.43-8.36c6.99-7.68,15.27-14.53,24.05-20.09
		c8.27-5.23,17.67-9.31,27.26-11.35c10.11-2.15,20.44-2.13,30.66-3.34C188.62,72.18,169.97,58,148,58L148,58z"/>
</g>
<g>
	<path class="st3" d="M148,157.5c-9.84,0-19.32-2.88-27.47-8.32c1.15-1.2,2.28-2.41,3.42-3.62c6.84-7.28,13.92-14.8,22.53-20.47
		c8-5.26,16.51-8.77,25.27-10.44c5.67-1.07,11.54-1.51,17.23-1.93c2.73-0.2,5.55-0.41,8.33-0.69
		C195.26,137.58,173.71,157.5,148,157.5z"/>
	<path class="st2" d="M196.77,112.6C194.44,137.59,173.24,157,148,157c-9.54,0-18.74-2.73-26.69-7.91c1.01-1.06,2.01-2.13,3.01-3.19
		c6.82-7.26,13.88-14.76,22.44-20.39c7.95-5.23,16.39-8.71,25.09-10.36c5.64-1.07,11.5-1.5,17.17-1.92
		C191.57,113.04,194.18,112.85,196.77,112.6 M197.87,111.49c-8.73,0.91-17.58,1.05-26.2,2.68c-9.21,1.74-17.64,5.37-25.46,10.51
		c-10.24,6.73-18.13,15.88-26.45,24.59c8.04,5.51,17.76,8.74,28.24,8.74h0C174.44,158,196.07,137.47,197.87,111.49L197.87,111.49z"
		/>
</g>
</svg>
