<?xml version="1.0" encoding="utf-8"?>
<!-- Generator: Adobe Illustrator 27.2.0, SVG Export Plug-In . SVG Version: 6.00 Build 0)  -->
<svg version="1.1" id="Слой_1" xmlns="http://www.w3.org/2000/svg" xmlns:xlink="http://www.w3.org/1999/xlink" x="0px" y="0px"
	 viewBox="0 0 256 512" style="enable-background:new 0 0 256 512;" xml:space="preserve">
<style type="text/css">
	.st0{fill:#0B0C10;}
	.st1{fill:#FFFFFF;}
	.st2{fill:#1F2833;}
	.st3{fill:#66FCF1;}
	.st4{fill:#45A29E;}
</style>
<g>
	<path class="st0" d="M3.5,43C3.5,21.22,21.22,3.5,43,3.5h170c21.78,0,39.5,17.72,39.5,39.5v17.79c-1.04,0.53-1.9,1.23-2.57,2.1
		c-4.65,6-11.58,9.87-18.29,13.62c-1.98,1.11-4.03,2.25-5.96,3.42c-9.23,5.59-17.42,9.61-27.43,11.07
		c-4.66,0.68-9.44,1.03-14.06,1.38c-6.46,0.48-13.13,0.98-19.63,2.36c-9.25,1.97-18.73,5.92-27.42,11.42
		c-8.94,5.66-17.29,12.63-24.15,20.17c-1.37,1.5-2.71,3.03-4.05,4.55c-4.86,5.52-9.89,11.23-16.05,15.63
		c-9.55,6.82-18.49,10.59-27.34,11.51c-4.06,0.42-8.18,0.66-12.16,0.89c-7.04,0.41-14.32,0.83-21.49,2.3
		c-7.78,1.6-19.09,4.37-28.42,10.08V43z"/>
	<path class="st1" d="M213,4c21.5,0,39,17.5,39,39v17.48c-0.98,0.54-1.81,1.24-2.47,2.09c-4.59,5.92-11.47,9.77-18.13,13.49
		c-1.99,1.11-4.04,2.26-5.98,3.43c-9.17,5.56-17.32,9.56-27.24,11c-4.64,0.67-9.41,1.03-14.02,1.37c-6.47,0.48-13.17,0.98-19.7,2.37
		c-9.31,1.98-18.85,5.96-27.58,11.49c-8.97,5.68-17.36,12.69-24.25,20.26c-1.37,1.51-2.73,3.05-4.05,4.55
		c-5.06,5.75-9.85,11.19-15.96,15.55c-9.48,6.77-18.34,10.51-27.1,11.42c-4.05,0.42-8.16,0.66-12.14,0.89
		c-7.06,0.41-14.36,0.83-21.56,2.31c-7.61,1.56-18.58,4.24-27.81,9.69V43C4,21.5,21.5,4,43,4H213 M213,3H43C20.91,3,3,20.91,3,43
		v129.18c8.63-5.51,19.1-8.46,29.02-10.49c11.17-2.29,22.33-2,33.6-3.18c10.13-1.06,19.38-5.75,27.58-11.6
		c7.87-5.62,13.72-13.15,20.17-20.25c6.99-7.68,15.27-14.53,24.05-20.09c8.27-5.23,17.67-9.31,27.26-11.35
		c11.1-2.37,22.47-2.1,33.65-3.73c10.31-1.5,18.8-5.79,27.62-11.14c8.37-5.08,18.27-9.26,24.39-17.16c0.73-0.94,1.65-1.62,2.68-2.09
		V43C253,20.91,235.09,3,213,3L213,3z"/>
</g>
<g>
	<path class="st0" d="M43,509.5c-21.78,0-39.5-17.72-39.5-39.5v-13.73c2.85-4.63,8.29-8.66,12.45-10.9
		c7.86-4.24,16.96-6.13,24.87-7.56c5.41-0.98,11.01-1.21,16.43-1.43c5.45-0.22,11.08-0.45,16.57-1.45
		c11.89-2.15,22.37-8.18,29.06-12.85c7.98-5.58,14.65-12.67,21.09-19.53c6.84-7.27,13.91-14.79,22.52-20.45
		c8-5.26,16.51-8.77,25.27-10.44c5.65-1.07,11.52-1.5,17.2-1.92c4.54-0.33,9.23-0.68,13.8-1.35c13.36-1.96,24.45-7.84,33.53-13.35
		c2.08-1.26,4.28-2.51,6.41-3.72c3.25-1.85,6.61-3.75,9.8-5.83V470c0,21.78-17.72,39.5-39.5,39.5H43z"/>
	<path class="st1" d="M252,346.41V470c0,21.5-17.5,39-39,39H43c-21.5,0-39-17.5-39-39v-13.59c2.82-4.49,8.12-8.41,12.19-10.61
		c7.79-4.2,16.85-6.08,24.72-7.51c5.38-0.98,10.96-1.21,16.36-1.43c5.46-0.22,11.12-0.46,16.64-1.45
		c11.98-2.17,22.52-8.23,29.26-12.94c8.02-5.6,14.71-12.72,21.17-19.59c6.82-7.25,13.87-14.75,22.43-20.38
		c7.95-5.23,16.39-8.71,25.09-10.36c5.63-1.07,11.48-1.5,17.14-1.91c4.55-0.33,9.25-0.68,13.84-1.35
		c13.45-1.97,24.59-7.89,33.72-13.41c2.07-1.26,4.27-2.5,6.4-3.71C245.95,350.06,249.04,348.31,252,346.41 M253,344.56
		c-5.48,3.67-11.49,6.74-16.97,10.06c-10.47,6.35-21.12,11.49-33.34,13.28c-10.28,1.5-20.82,1.33-31.02,3.27
		c-9.21,1.74-17.64,5.37-25.46,10.51c-16.77,11.02-27.22,28.52-43.62,39.99c-8.52,5.96-18.57,10.91-28.86,12.77
		c-10.92,1.97-22.12,0.9-33,2.88c-8.48,1.54-17.37,3.49-25.02,7.61c-4.39,2.37-9.87,6.51-12.71,11.2V470c0,22.09,17.91,40,40,40h170
		c22.09,0,40-17.91,40-40V344.56L253,344.56z"/>
</g>
<g>
	<path class="st2" d="M61.59,158.37C53.03,143.4,48.5,126.34,48.5,109c0-54.86,44.64-99.5,99.5-99.5
		c40.69,0,76.83,24.31,92.17,61.97c-2.75,1.8-5.69,3.44-8.54,5.03c-1.98,1.11-4.03,2.25-5.96,3.42
		c-9.23,5.59-17.42,9.61-27.43,11.07c-4.66,0.68-9.44,1.03-14.06,1.38c-6.46,0.48-13.13,0.98-19.63,2.36
		c-9.25,1.97-18.73,5.92-27.42,11.42c-8.94,5.66-17.29,12.63-24.15,20.17c-1.37,1.5-2.71,3.03-4.05,4.55
		c-4.86,5.52-9.89,11.23-16.05,15.63c-9.55,6.82-18.49,10.59-27.34,11.51C64.24,158.15,62.92,158.26,61.59,158.37z"/>
	<path class="st0" d="M148,10c20.14,0,39.51,6.01,56.04,17.38c15.92,10.95,28.18,26.11,35.51,43.9c-2.64,1.71-5.44,3.27-8.16,4.79
		c-1.98,1.11-4.03,2.25-5.97,3.43c-9.17,5.56-17.32,9.56-27.24,11c-4.64,0.67-9.41,1.03-14.02,1.37c-6.47,0.48-13.17,0.98-19.7,2.37
		c-9.31,1.98-18.85,5.96-27.58,11.49c-8.97,5.68-17.36,12.69-24.25,20.26c-1.37,1.51-2.73,3.05-4.05,4.55
		c-5.06,5.75-9.85,11.19-15.96,15.55c-9.48,6.77-18.34,10.51-27.1,11.42c-1.14,0.12-2.34,0.23-3.64,0.33
		C53.45,143.02,49,126.15,49,109C49,54.41,93.41,10,148,10 M148,9L148,9C92.77,9,48,53.77,48,109v0c0,18.17,4.85,35.21,13.32,49.89
		c1.43-0.11,2.87-0.24,4.3-0.39c10.13-1.06,19.38-5.75,27.58-11.6c7.87-5.62,13.72-13.15,20.17-20.25
		c6.99-7.68,15.27-14.53,24.05-20.09c8.27-5.23,17.67-9.31,27.26-11.35c11.1-2.37,22.47-2.1,33.65-3.73
		c10.31-1.5,18.8-5.79,27.62-11.14c4.79-2.9,10.06-5.51,14.85-8.69C225.99,34.93,190.03,9,148,9L148,9z"/>
</g>
<g>
	<path class="st2" d="M148,465.5c-27.18,0-53.42-11.28-72.15-30.99c8.82-1.94,18.14-6.23,27.02-12.44
		c7.98-5.58,14.65-12.67,21.09-19.53c6.84-7.27,13.91-14.79,22.52-20.45c8-5.26,16.51-8.77,25.27-10.44
		c5.65-1.07,11.52-1.5,17.2-1.92c4.54-0.33,9.23-0.68,13.8-1.35c13.36-1.96,24.45-7.84,33.53-13.35c2.09-1.27,4.3-2.52,6.44-3.74
		c1.13-0.64,2.26-1.28,3.38-1.93c0.92,5.47,1.39,11.06,1.39,16.62C247.5,420.86,202.86,465.5,148,465.5z"/>
	<path class="st0" d="M245.74,350.17c0.84,5.21,1.26,10.53,1.26,15.83c0,54.59-44.41,99-99,99c-13.97,0-27.47-2.85-40.13-8.48
		c-11.7-5.2-22.13-12.5-31.04-21.72c8.63-2.04,17.69-6.28,26.34-12.32c8.02-5.6,14.71-12.72,21.17-19.59
		c6.82-7.25,13.87-14.75,22.43-20.38c7.95-5.23,16.39-8.71,25.09-10.36c5.63-1.07,11.48-1.5,17.14-1.91
		c4.55-0.33,9.25-0.68,13.84-1.35c13.45-1.97,24.59-7.89,33.72-13.41c2.08-1.26,4.29-2.51,6.43-3.73
		C243.89,351.23,244.82,350.7,245.74,350.17 M246.49,348.59c-3.52,2.05-7.09,3.99-10.45,6.03c-10.47,6.35-21.12,11.49-33.34,13.28
		c-10.28,1.5-20.82,1.33-31.02,3.27c-9.21,1.74-17.64,5.37-25.46,10.51c-16.77,11.02-27.22,28.52-43.62,39.99
		c-8.21,5.73-17.82,10.53-27.71,12.54C93.13,453.77,119.13,466,148,466h0c55.23,0,100-44.77,100-100v0
		C248,360.06,247.48,354.24,246.49,348.59L246.49,348.59z"/>
</g>
<g>
	<path class="st3" d="M88,499.5c-33.29,0-62.72-22.31-71.71-54.31c7.78-4.11,16.73-5.96,24.53-7.38c5.41-0.98,11.01-1.21,16.43-1.43
		c5.45-0.22,11.08-0.45,16.57-1.45c11.89-2.15,22.37-8.18,29.06-12.85c7.98-5.58,14.65-12.67,21.09-19.53
		c6.84-7.27,13.91-14.79,22.52-20.45c0.55-0.36,1.11-0.71,1.66-1.05c9.39,12.82,14.35,28.01,14.35,43.96
		C162.5,466.08,129.08,499.5,88,499.5z"/>
	<path class="st2" d="M148.02,381.71C157.17,394.37,162,409.32,162,425c0,40.8-33.2,74-74,74c-32.93,0-62.06-21.98-71.12-53.56
		c7.63-3.95,16.39-5.76,24.03-7.14c5.38-0.98,10.96-1.21,16.36-1.43c5.46-0.22,11.12-0.46,16.64-1.45
		c11.98-2.17,22.52-8.23,29.26-12.94c8.02-5.6,14.71-12.72,21.17-19.59c6.82-7.25,13.87-14.75,22.43-20.38
		C147.17,382.24,147.6,381.97,148.02,381.71 M148.28,380.38c-0.69,0.43-1.39,0.85-2.07,1.3c-16.77,11.02-27.22,28.52-43.62,39.99
		c-8.52,5.96-18.57,10.91-28.86,12.77c-10.92,1.97-22.12,0.9-33,2.88c-8.48,1.54-17.37,3.49-25.02,7.61c0,0-0.01,0-0.01,0.01
		C24.43,476.68,53.48,500,88,500h0c41.42,0,75-33.58,75-75v0C163,408.28,157.53,392.85,148.28,380.38L148.28,380.38z"/>
</g>
<g>
	<path class="st3" d="M13.53,166.37c0.42-19.43,8.24-37.64,22.09-51.34C49.65,101.15,68.26,93.5,88,93.5
		c16.49,0,32.09,5.28,45.17,15.28c-7.5,5.17-14.29,11.07-20.17,17.54c-1.37,1.5-2.71,3.03-4.05,4.54
		c-4.86,5.52-9.89,11.23-16.05,15.63c-9.55,6.82-18.49,10.59-27.34,11.51c-4.06,0.42-8.18,0.66-12.16,0.89
		c-7.04,0.41-14.32,0.83-21.49,2.3C24.59,162.7,18.72,164.35,13.53,166.37z"/>
	<path class="st2" d="M88,94c16.15,0,31.44,5.1,44.32,14.76c-7.31,5.1-13.93,10.89-19.69,17.22c-1.37,1.51-2.73,3.05-4.05,4.55
		c-5.06,5.75-9.85,11.19-15.96,15.55c-9.48,6.77-18.34,10.51-27.1,11.42c-4.05,0.42-8.16,0.66-12.14,0.89
		c-7.06,0.41-14.36,0.83-21.56,2.31c-7.03,1.44-12.72,3.02-17.76,4.93c0.6-19.02,8.35-36.82,21.92-50.25C49.91,101.6,68.39,94,88,94
		 M88,93L88,93c-41.12,0-74.5,33.1-74.98,74.11c6.15-2.46,12.68-4.13,18.99-5.42c11.17-2.29,22.33-2,33.6-3.18
		c10.13-1.06,19.38-5.75,27.58-11.6c7.87-5.62,13.72-13.15,20.17-20.25c6.08-6.68,13.14-12.74,20.65-17.86
		C121.31,98.91,105.35,93,88,93L88,93z"/>
</g>
<g>
	<path class="st4" d="M106,134.19c-4.91-7.86-7.5-16.9-7.5-26.19c0-27.29,22.21-49.5,49.5-49.5c20.98,0,39.65,13.21,46.65,32.95
		c-3.48,0.39-7.02,0.66-10.45,0.91c-6.46,0.48-13.14,0.98-19.64,2.36c-9.25,1.97-18.73,5.92-27.42,11.42
		c-8.94,5.66-17.29,12.63-24.15,20.17c-1.37,1.51-2.72,3.04-4.06,4.56C107.96,131.99,106.98,133.09,106,134.19z"/>
	<path class="st3" d="M148,59c20.56,0,38.87,12.82,45.96,32.02c-3.26,0.36-6.58,0.6-9.8,0.84c-6.48,0.48-13.18,0.98-19.71,2.37
		c-9.31,1.98-18.85,5.96-27.58,11.49c-8.97,5.68-17.36,12.69-24.25,20.26c-1.38,1.51-2.74,3.06-4.06,4.56
		c-0.83,0.94-1.65,1.88-2.48,2.81C101.44,125.71,99,116.97,99,108C99,80.98,120.98,59,148,59 M148,58L148,58
		c-27.61,0-50,22.39-50,50v0c0,9.95,2.92,19.22,7.93,27.01c2.49-2.76,4.91-5.59,7.43-8.36c6.99-7.68,15.27-14.53,24.05-20.09
		c8.27-5.23,17.67-9.31,27.26-11.35c10.11-2.15,20.44-2.13,30.66-3.34C188.62,72.18,169.97,58,148,58L148,58z"/>
</g>
<g>
	<path class="st4" d="M148,414.5c-9.84,0-19.32-2.88-27.47-8.32c1.15-1.2,2.28-2.41,3.42-3.62c6.84-7.28,13.92-14.8,22.53-20.46
		c8-5.26,16.51-8.77,25.27-10.44c5.67-1.07,11.54-1.51,17.23-1.93c2.73-0.2,5.55-0.41,8.33-0.69
		C195.26,394.58,173.7,414.5,148,414.5z"/>
	<path class="st3" d="M196.77,369.6C194.44,394.59,173.24,414,148,414c-9.54,0-18.74-2.73-26.69-7.91c1.01-1.06,2.01-2.13,3.01-3.19
		c6.82-7.26,13.88-14.76,22.44-20.39c7.95-5.23,16.39-8.71,25.09-10.36c5.64-1.07,11.5-1.5,17.17-1.92
		C191.57,370.04,194.18,369.85,196.77,369.6 M197.87,368.49c-8.73,0.91-17.58,1.05-26.2,2.68c-9.21,1.74-17.64,5.37-25.46,10.51
		c-10.24,6.73-18.13,15.88-26.45,24.59c8.04,5.51,17.76,8.74,28.24,8.74h0C174.44,415,196.07,394.47,197.87,368.49L197.87,368.49z"
		/>
</g>
<g>
	<g>
		<path class="st2" d="M34.85,249.27V206.7h4.1l19.1,36.65l-1.23-0.21V206.7h4.22v42.57h-4.19l-19.31-36.8l1.49,0.44v36.36H34.85z"
			/>
		<path class="st2" d="M77.71,249.74c-3.11,0-5.48-0.76-7.12-2.29s-2.46-3.75-2.46-6.68c0-3.14,0.84-5.53,2.52-7.16
			c1.68-1.63,4.11-2.45,7.29-2.45h7.79l0.41,3.49h-8.17c-1.89,0-3.34,0.52-4.34,1.55c-1,1.04-1.49,2.56-1.49,4.57
			c0,1.78,0.55,3.12,1.64,4.04s2.67,1.38,4.72,1.38c2.27,0,3.99-0.38,5.19-1.14s1.79-1.88,1.79-3.37l0.62,3.25
			c-0.31,1.05-0.84,1.94-1.6,2.65s-1.69,1.25-2.83,1.61S79.22,249.74,77.71,249.74z M85.48,249.3v-20.8c0-2.03-0.56-3.61-1.67-4.73
			c-1.11-1.12-2.7-1.68-4.75-1.68c-1.46,0-2.74,0.34-3.84,1.03c-1.09,0.68-1.91,1.65-2.46,2.9l-3.57-1.08
			c0.59-2.05,1.73-3.65,3.44-4.8c1.71-1.15,3.84-1.73,6.4-1.73c3.34,0,5.92,0.87,7.75,2.62c1.83,1.75,2.74,4.2,2.74,7.37v20.92
			H85.48z"/>
		<path class="st2" d="M94.94,222.67v-3.78h13.42v3.78H94.94z M105.19,249.45c-2.5,0-4.31-0.69-5.43-2.08s-1.68-3.38-1.68-5.98
			v-31.35h4.22v31.41c0,1.29,0.29,2.29,0.88,3s1.46,1.07,2.61,1.07h2.58v3.93H105.19z"/>
		<path class="st2" d="M115.68,211.74v-4.19h4.25v4.19H115.68z M115.68,249.3v-30.41h4.25v30.41H115.68z"/>
		<path class="st2" d="M138.33,249.74c-3.38,0-6-0.96-7.85-2.89c-1.86-1.92-2.78-4.64-2.78-8.16v-9.38c0-3.48,0.93-6.17,2.78-8.07
			c1.86-1.9,4.47-2.86,7.85-2.86s6,0.95,7.85,2.86s2.78,4.6,2.78,8.07v9.46c0,3.48-0.93,6.17-2.78,8.09S141.71,249.74,138.33,249.74
			z M138.3,245.81c2.05,0,3.64-0.62,4.76-1.85s1.68-2.95,1.68-5.16v-9.52c0-2.21-0.56-3.92-1.68-5.13
			c-1.12-1.21-2.71-1.82-4.76-1.82c-2.03,0-3.6,0.61-4.72,1.82c-1.11,1.21-1.67,2.92-1.67,5.13v9.52c0,2.21,0.56,3.93,1.67,5.16
			S136.27,245.81,138.3,245.81z"/>
		<path class="st2" d="M156.14,249.3v-30.41h4.22v30.41H156.14z M173.42,249.3v-19.98c0-2.27-0.57-3.99-1.7-5.19
			c-1.13-1.19-2.76-1.79-4.89-1.79c-2.09,0-3.69,0.58-4.8,1.74c-1.11,1.16-1.67,2.86-1.67,5.08l-0.62-5.1
			c0.92-2.01,2.13-3.46,3.65-4.35c1.51-0.89,3.24-1.33,5.17-1.33c2.97,0,5.22,0.94,6.77,2.81s2.31,4.59,2.31,8.14v19.95H173.42z"/>
		<path class="st2" d="M194.02,249.74c-3.11,0-5.48-0.76-7.12-2.29s-2.46-3.75-2.46-6.68c0-3.14,0.84-5.53,2.52-7.16
			c1.68-1.63,4.11-2.45,7.29-2.45h7.79l0.41,3.49h-8.17c-1.89,0-3.34,0.52-4.34,1.55c-1,1.04-1.49,2.56-1.49,4.57
			c0,1.78,0.55,3.12,1.64,4.04s2.67,1.38,4.72,1.38c2.27,0,3.99-0.38,5.19-1.14s1.79-1.88,1.79-3.37l0.62,3.25
			c-0.31,1.05-0.84,1.94-1.6,2.65s-1.69,1.25-2.83,1.61S195.52,249.74,194.02,249.74z M201.78,249.3v-20.8
			c0-2.03-0.56-3.61-1.67-4.73c-1.11-1.12-2.7-1.68-4.75-1.68c-1.46,0-2.74,0.34-3.84,1.03c-1.09,0.68-1.91,1.65-2.46,2.9
			l-3.57-1.08c0.59-2.05,1.73-3.65,3.44-4.8c1.71-1.15,3.84-1.73,6.4-1.73c3.34,0,5.92,0.87,7.75,2.62c1.83,1.75,2.74,4.2,2.74,7.37
			v20.92H201.78z"/>
		<path class="st2" d="M217.81,206.7v34.6c0,1.29,0.3,2.29,0.91,3s1.45,1.07,2.52,1.07h2.4v3.93h-2.93c-2.25,0-3.99-0.7-5.24-2.11
			s-1.88-3.39-1.88-5.95V206.7H217.81z"/>
		<path class="st2" d="M7.55,309.3v-42.6h4.22v42.6H7.55z M11.06,309.3v-3.93h9.99c2.52,0,4.35-0.52,5.48-1.55s1.7-2.41,1.7-4.13
			v-3.87c0-2.07-0.55-3.7-1.66-4.88s-2.75-1.77-4.94-1.77H11.06v-3.93h10.58c1.99,0,3.5-0.51,4.51-1.52s1.52-2.5,1.52-4.45v-3.08
			c0-1.84-0.54-3.22-1.63-4.16s-2.68-1.41-4.79-1.41h-10.2v-3.93h10.58c3.4,0,5.96,0.84,7.68,2.52s2.58,3.97,2.58,6.88v2.87
			c0,2.05-0.48,3.85-1.44,5.39s-2.43,2.53-4.42,2.96c2.05,0.35,3.63,1.35,4.75,2.99s1.67,3.63,1.67,5.98v3.46
			c0,2.93-0.9,5.25-2.7,6.97s-4.29,2.58-7.47,2.58H11.06z"/>
		<path class="st2" d="M40.06,271.74v-4.19h4.25v4.19H40.06z M40.06,309.3v-30.41h4.25v30.41H40.06z"/>
		<path class="st2" d="M62.71,309.74c-3.38,0-6-0.96-7.85-2.89s-2.78-4.64-2.78-8.16v-9.38c0-3.48,0.93-6.17,2.78-8.07
			s4.47-2.86,7.85-2.86s6,0.95,7.85,2.86s2.78,4.59,2.78,8.07v9.46c0,3.48-0.93,6.17-2.78,8.09S66.09,309.74,62.71,309.74z
			 M62.68,305.81c2.05,0,3.64-0.62,4.76-1.85s1.68-2.95,1.68-5.16v-9.52c0-2.21-0.56-3.92-1.68-5.13s-2.71-1.82-4.76-1.82
			c-2.03,0-3.6,0.61-4.72,1.82s-1.67,2.92-1.67,5.13v9.52c0,2.21,0.56,3.93,1.67,5.16S60.65,305.81,62.68,305.81z"/>
		<path class="st2" d="M88.84,309.77c-2.87,0-5.1-0.93-6.68-2.8s-2.37-4.49-2.37-7.87v-9.76c0-3.5,0.78-6.19,2.33-8.09
			s3.75-2.84,6.58-2.84c1.84,0,3.52,0.43,5.05,1.3s2.76,2.25,3.68,4.15l-0.62,5.01c0.02-1.27-0.22-2.42-0.72-3.46
			s-1.22-1.86-2.17-2.46s-2.09-0.91-3.44-0.91c-2.05,0-3.64,0.64-4.78,1.93s-1.7,3.09-1.7,5.39v9.7c0,2.21,0.57,3.93,1.7,5.17
			s2.72,1.86,4.78,1.86c1.35,0,2.49-0.3,3.43-0.91s1.66-1.43,2.15-2.48s0.75-2.18,0.75-3.41l0.41,5.21
			c-0.68,1.82-1.77,3.14-3.25,3.98S90.78,309.77,88.84,309.77z M89.84,321.66c-2.7,0-4.88-0.62-6.55-1.88s-2.69-3.02-3.06-5.3
			l3.78-1.2c0.33,1.45,1.02,2.56,2.05,3.35s2.32,1.19,3.87,1.19c2.17,0,3.86-0.59,5.07-1.77s1.82-2.87,1.82-5.05v-32.11H101v31.85
			c0,3.48-0.97,6.17-2.92,8.07S93.4,321.66,89.84,321.66z"/>
		<path class="st2" d="M108.77,309.3v-30.41h4.22v30.41H108.77z M124.67,283.31c-0.33-0.33-0.74-0.58-1.23-0.75s-1.05-0.25-1.7-0.25
			c-2.7,0-4.81,0.68-6.34,2.05s-2.34,3.26-2.42,5.68l-0.62-5.86c1.11-1.84,2.57-3.26,4.37-4.28s3.78-1.52,5.95-1.52
			c0.68,0,1.31,0.1,1.88,0.31s1.05,0.5,1.46,0.89L124.67,283.31z"/>
		<path class="st2" d="M139.56,309.74c-3.11,0-5.48-0.76-7.12-2.29s-2.46-3.75-2.46-6.68c0-3.14,0.84-5.53,2.52-7.16
			s4.11-2.45,7.29-2.45h7.79l0.41,3.49h-8.17c-1.89,0-3.34,0.52-4.34,1.55s-1.49,2.56-1.49,4.57c0,1.78,0.55,3.12,1.64,4.04
			s2.67,1.38,4.72,1.38c2.27,0,3.99-0.38,5.19-1.14s1.79-1.88,1.79-3.37l0.62,3.25c-0.31,1.05-0.84,1.94-1.6,2.65
			s-1.69,1.25-2.83,1.61S141.06,309.74,139.56,309.74z M147.32,309.3v-20.8c0-2.03-0.56-3.61-1.67-4.73s-2.7-1.68-4.75-1.68
			c-1.46,0-2.74,0.34-3.84,1.03s-1.91,1.65-2.46,2.9l-3.57-1.08c0.59-2.05,1.73-3.65,3.44-4.8s3.84-1.73,6.4-1.73
			c3.34,0,5.92,0.87,7.75,2.62s2.74,4.2,2.74,7.37v20.92H147.32z"/>
		<path class="st2" d="M159.13,321.66v-42.77h4.22v42.77H159.13z M171.26,309.74c-1.95,0-3.68-0.42-5.17-1.26s-2.54-2.16-3.15-3.96
			l0.41-5.48c0,1.31,0.24,2.5,0.73,3.57s1.21,1.92,2.15,2.55s2.09,0.94,3.44,0.94c2.07,0,3.67-0.65,4.8-1.96s1.7-3.14,1.7-5.51
			v-9.14c0-2.36-0.57-4.2-1.7-5.51s-2.73-1.96-4.8-1.96c-1.35,0-2.5,0.31-3.44,0.92s-1.67,1.45-2.15,2.5s-0.73,2.22-0.73,3.49
			l-0.62-4.98c0.86-1.91,2.08-3.32,3.65-4.22s3.31-1.35,5.2-1.35c2.77,0,4.93,0.97,6.46,2.9s2.3,4.67,2.3,8.2v9.14
			c0,3.52-0.79,6.25-2.37,8.19S174.15,309.74,171.26,309.74z"/>
		<path class="st2" d="M187.52,309.3v-42.6h4.22v42.6H187.52z M204.8,309.3v-19.95c0-2.27-0.57-4-1.7-5.2s-2.76-1.8-4.89-1.8
			c-2.09,0-3.69,0.58-4.8,1.74s-1.67,2.87-1.67,5.11l-0.62-5.45c0.92-1.88,2.13-3.24,3.63-4.09s3.23-1.27,5.19-1.27
			c2.97,0,5.22,0.94,6.77,2.81s2.31,4.59,2.31,8.14v19.95H204.8z"/>
		<path class="st2" d="M217.52,271.74v-4.19h4.25v4.19H217.52z M217.52,309.3v-30.41h4.25v30.41H217.52z"/>
		<path class="st2" d="M240.72,309.74c-3.65,0-6.43-0.95-8.33-2.84s-2.86-4.66-2.86-8.29v-8.91c0-3.63,0.95-6.42,2.86-8.36
			s4.68-2.92,8.33-2.92c2.85,0,5.15,0.65,6.88,1.95s2.82,3.16,3.25,5.58l-4.1,1.26c-0.37-1.6-1.06-2.81-2.07-3.63
			s-2.3-1.23-3.88-1.23c-2.29,0-4.04,0.63-5.26,1.89s-1.83,3.08-1.83,5.46v8.91c0,2.34,0.61,4.13,1.83,5.36s2.97,1.85,5.26,1.85
			c1.62,0,2.95-0.4,4-1.19s1.77-1.93,2.18-3.41l3.87,1.23c-0.43,2.32-1.51,4.12-3.25,5.39S243.57,309.74,240.72,309.74z"/>
	</g>
</g>
</svg>
